# xmcd
#
# Track frame offsets:
# 183
# 9120
# 18630
# 29148
# 42200
# 65508
# 78860
# 92808
# 109868
# 119903
# 134133
# 149088
# 163730
# 176818
# 193905
# 211705
# 224388
# 239158
# 247523
# 257005
# 270610
# 300033
# 309923
# 321915
#
# Disc length: 4484 seconds
#
#
# Revision: 0
# Processed by: cddbd v1.5.2PL0 Copyright (c) Steve Scherf et al.
# Submitted via: FreeRIP 2.945 
#
DISCID=61118218
DTITLE=Dr. Feelgood - Stupidity +
DYEAR=1991
DGENRE=Blues
TTITLE0=I'm Talking About You
TTITLE1=Twenty Yards Behind
TTITLE2=Stupidity
TTITLE3=All Through The City
TTITLE4=I'm A Man
TTITLE5=Walking The Dog
TTITLE6=She Does It Right
TTITLE7=Going Back Home
TTITLE8=I Don't Mind
TTITLE9=Back In The Night
TTITLE10=I'm A Hog For You
TTITLE11=Checking Up On My Baby
TTITLE12=Roxette
TTITLE13=Riot In Cell Block No. 9
TTITLE14=Johnny B. Goode
TTITLE15=Take A Tip
TTITLE16=Every Kind Of Vice
TTITLE17=She's A Wind Up
TTITLE18=No Mo Do Yakamo
TTITLE19=Love Hound
TTITLE20=Shotgun Blues
TTITLE21=King For A Day
TTITLE22=Milk and Alcohol
TTITLE23=Down At The Doctors
EXTD=
EXTT0=
EXTT1=
EXTT2=
EXTT3=
EXTT4=
EXTT5=
EXTT6=
EXTT7=
EXTT8=
EXTT9=
EXTT10=
EXTT11=
EXTT12=
EXTT13=
EXTT14=
EXTT15=
EXTT16=
EXTT17=
EXTT18=
EXTT19=
EXTT20=
EXTT21=
EXTT22=
EXTT23=
PLAYORDER=
